#!OML:ASF X:\für Bonn\!DataBase\2005_08_10_Bjorn_Final\c3d\bjorn.ASF
:FULLY-SPECIFIED
:DEGREES
231
root 15.7145 17.8363 1.38841 170.728 -106.243 -134.987
lowerback 76.1839 -3.14639 11.3727
upperback 14.7101 1.6288 -2.28749
thorax -3.37413 0.918655 -7.65474
lowerneck 4.48652 -8.36064 9.65335
upperneck -17.4844 -9.7839 4.74134
head -6.3532 -5.88934 0.664097
rclavicle 6.36111e-014 -5.56597e-014
rhumerus 61.6397 -1.91414 -1.44342
rradius 21.9659
rwrist 11.2259
rhand -35.2398 34.381
rfingers 7.12502
rthumb -8.37623 4.56713
lclavicle 6.36111e-014 -5.56597e-014
lhumerus -17.061 -30.633 85.7861
lradius 56.8866
lwrist 1.95819
lhand -35.6966 -15.4065
lfingers 7.12502
lthumb -8.81699 14.3893
rfemur -68.6701 -7.44402 -0.933939
rtibia 59.5527
rfoot -20.0248 -4.29111
rtoes -13.6256
lfemur -69.5854 -0.651528 -31.6771
ltibia 57.0226
lfoot -12.6929 3.48716
ltoes -23.1584
232
root 15.7219 17.8308 1.37528 170.695 -106.291 -134.944
lowerback 76.1962 -3.12316 11.3197
upperback 14.7137 1.61504 -2.31738
thorax -3.37586 0.916854 -7.66471
lowerneck 4.62022 -8.39607 9.61906
upperneck -17.4918 -9.79988 4.82915
head -6.37282 -5.90083 0.704531
rclavicle 4.45278e-014 -4.92986e-014
rhumerus 61.4815 -1.88413 -1.46129
rradius 21.8908
rwrist 11.1311
rhand -35.869 35.0977
rfingers 7.12502
rthumb -8.98343 5.30901
lclavicle 4.45278e-014 -4.92986e-014
lhumerus -17.0573 -30.5922 85.8955
lradius 56.7566
lwrist 2.20732
lhand -35.6595 -15.5529
lfingers 7.12502
lthumb -8.78124 14.2444
rfemur -68.7553 -7.47295 -0.934768
rtibia 59.643
rfoot -20.033 -4.27377
rtoes -13.4846
lfemur -69.6115 -0.665945 -31.6942
ltibia 57.0015
lfoot -12.6828 3.51244
ltoes -23.2797
233
root 15.7289 17.8269 1.36231 170.638 -106.335 -134.887
lowerback 76.1753 -3.10654 11.2777
upperback 14.7557 1.58814 -2.36909
thorax -3.33712 0.916757 -7.69988
lowerneck 4.66638 -8.424 9.64203
upperneck -17.4826 -9.81145 4.91817
head -6.37549 -5.91335 0.731877
rclavicle -3.18055e-014 -3.02153e-014
rhumerus 61.2968 -1.81984 -1.31803
rradius 21.8352
rwrist 10.7409
rhand -36.3972 35.6203
rfingers 7.12502
rthumb -9.49308 5.85418
lclavicle -3.18055e-014 -3.02153e-014
lhumerus -17.0029 -30.6567 85.9203
lradius 56.672
lwrist 2.51889
lhand -35.6232 -15.5622
lfingers 7.12502
lthumb -8.74625 14.2366
rfemur -68.8209 -7.49151 -0.942873
rtibia 59.723
rfoot -20.0578 -4.25881
rtoes -13.4058
lfemur -69.6195 -0.678808 -31.7065
ltibia 56.9745
lfoot -12.7042 3.51617
ltoes -23.1122
234
root 15.7369 17.8224 1.34873 170.668 -106.393 -134.904
lowerback 76.1139 -3.08972 11.2476
upperback 14.8021 1.57082 -2.38917
thorax -3.29537 0.916516 -7.70677
lowerneck 4.64553 -8.45756 9.63165
upperneck -17.4227 -9.85108 4.98065
head -6.34991 -5.93323 0.752874
rclavicle 3.18055e-015 -2.54444e-014
rhumerus 61.1305 -1.71139 -1.04298
rradius 21.8087
rwrist 10.1215
rhand -36.7815 35.9695
rfingers 7.12502
rthumb -9.86386 6.22052
lclavicle 3.18055e-015 -2.54444e-014
lhumerus -16.9276 -30.6879 85.9934
lradius 56.5393
lwrist 2.72787
lhand -35.5529 -15.4511
lfingers 7.12502
lthumb -8.67836 14.3505
rfemur -68.9025 -7.52942 -0.926888
rtibia 59.7942
rfoot -20.0485 -4.2554
rtoes -13.3541
lfemur -69.6499 -0.690485 -31.7175
ltibia 56.9452
lfoot -12.6898 3.51977
ltoes -23.185
235
root 15.7452 17.8191 1.33577 170.652 -106.422 -134.89
lowerback 76.0188 -3.03038 11.1727
upperback 14.8886 1.55448 -2.39152
thorax -3.21532 0.914514 -7.67684
lowerneck 4.46032 -8.47411 9.57635
upperneck -17.2693 -9.89901 5.04516
head -6.26311 -5.95041 0.769999
rclavicle -4.45278e-014 -3.02153e-014
rhumerus 61.014 -1.51618 -0.455262
rradius 21.7937
rwrist 9.15807
rhand -37.112 36.2232
rfingers 7.12502
rthumb -10.1827 6.48966
lclavicle -4.45278e-014 -3.02153e-014
lhumerus -16.8088 -30.6341 86.0583
lradius 56.3911
lwrist 2.85519
lhand -35.3881 -15.3131
lfingers 7.12502
lthumb -8.51931 14.495
rfemur -68.9765 -7.58124 -0.883624
rtibia 59.8575
rfoot -20.0287 -4.20045
rtoes -13.3086
lfemur -69.6645 -0.682948 -31.7281
ltibia 56.9131
lfoot -12.6906 3.5619
ltoes -23.1925
236
root 15.7539 17.8156 1.32343 170.712 -106.464 -134.935
lowerback 75.9082 -2.99406 11.1262
upperback 14.9463 1.54143 -2.38814
thorax -3.16715 0.911293 -7.65258
lowerneck 4.28865 -8.50269 9.52231
upperneck -17.0953 -9.96983 5.06584
head -6.17467 -5.97429 0.774893
rclavicle -4.77083e-014 -4.13472e-014
rhumerus 60.8849 -1.21418 0.283193
rradius 21.7994
rwrist 7.95177
rhand -37.3943 36.331
rfingers 7.12502
rthumb -10.455 6.61094
lclavicle -4.77083e-014 -4.13472e-014
lhumerus -16.7351 -30.627 86.15
lradius 56.2392
lwrist 2.9362
lhand -35.2417 -15.1965
lfingers 7.12502
lthumb -8.37801 14.6174
rfemur -69.0603 -7.63083 -0.842163
rtibia 59.911
rfoot -20.0076 -4.17118
rtoes -13.1719
lfemur -69.6958 -0.701928 -31.7119
ltibia 56.8714
lfoot -12.6857 3.56939
ltoes -23.1377
237
root 15.7625 17.8136 1.3107 170.778 -106.491 -135.012
lowerback 75.7741 -2.94348 11.0829
upperback 15.0379 1.53505 -2.38124
thorax -3.08087 0.913166 -7.62834
lowerneck 3.9818 -8.53687 9.482
upperneck -16.8181 -10.0692 5.08054
head -6.03198 -6.0072 0.767483
rclavicle 3.18055e-014 7.31528e-014
rhumerus 60.7508 -0.863221 1.15996
rradius 21.8181
rwrist 6.54712
rhand -37.6214 36.3381
rfingers 7.12502
rthumb -10.6741 6.62926
lclavicle 3.18055e-014 7.31528e-014
lhumerus -16.6265 -30.6706 86.2023
lradius 56.1093
lwrist 2.9913
lhand -35.0952 -15.0125
lfingers 7.12502
lthumb -8.23668 14.8069
rfemur -69.1186 -7.67879 -0.771405
rtibia 59.9539
rfoot -19.9929 -4.12249
rtoes -13.1158
lfemur -69.6957 -0.692237 -31.6969
ltibia 56.8226
lfoot -12.6669 3.58378
ltoes -23.146
238
root 15.7718 17.8122 1.29896 170.816 -106.513 -135.045
lowerback 75.6089 -2.89417 11.0383
upperback 15.1389 1.52087 -2.38674
thorax -2.98836 0.91407 -7.61581
lowerneck 3.7056 -8.56551 9.51974
upperneck -16.634 -10.1556 5.04477
head -5.93186 -6.04025 0.737065
rclavicle -1.17681e-013 5.08889e-014
rhumerus 60.6353 -0.542284 1.89101
rradius 21.8481
rwrist 5.16608
rhand -37.8416 36.1225
rfingers 7.12502
rthumb -10.8865 6.42472
lclavicle -1.17681e-013 5.08889e-014
lhumerus -16.5058 -30.7162 86.2396
lradius 55.9549
lwrist 2.97535
lhand -34.9537 -14.86
lfingers 7.12502
lthumb -8.10005 14.9648
rfemur -69.1866 -7.71399 -0.72569
rtibia 59.9793
rfoot -19.9565 -4.08363
rtoes -12.9554
lfemur -69.7083 -0.688576 -31.6851
ltibia 56.7625
lfoot -12.6538 3.59962
ltoes -23.1372
239
root 15.7814 17.8108 1.28586 170.899 -106.531 -135.128
lowerback 75.4451 -2.8188 10.9567
upperback 15.2105 1.51724 -2.36296
thorax -2.93215 0.909284 -7.55908
lowerneck 3.57638 -8.58821 9.4792
upperneck -16.5614 -10.2111 5.05599
head -5.88462 -6.063 0.741361
rclavicle -3.18055e-015 1.43125e-014
rhumerus 60.5603 -0.144243 2.61817
rradius 21.9495
rwrist 3.64766
rhand -38.1516 35.7274
rfingers 7.12502
rthumb -11.1855 6.04561
lclavicle -3.18055e-015 1.43125e-014
lhumerus -16.482 -30.7252 86.3316
lradius 55.8425
lwrist 2.95994
lhand -34.7742 -14.8484
lfingers 7.12502
lthumb -7.92685 14.983
rfemur -69.253 -7.76097 -0.650977
rtibia 60.0006
rfoot -19.9177 -4.00619
rtoes -12.7642
lfemur -69.7195 -0.667235 -31.6696
ltibia 56.6979
lfoot -12.6364 3.60779
ltoes -23.1148
240
root 15.7912 17.8105 1.27388 171.012 -106.535 -135.242
lowerback 75.2625 -2.77349 10.9258
upperback 15.286 1.51097 -2.37184
thorax -2.8686 0.910924 -7.55931
lowerneck 3.45157 -8.62307 9.45534
upperneck -16.5221 -10.2707 5.11825
head -5.84747 -6.09402 0.76064
rclavicle -1.01778e-013 6.83819e-014
rhumerus 60.458 -0.00171928 2.47865
rradius 22.0036
rwrist 2.90326
rhand -38.4246 35.3049
rfingers 7.12502
rthumb -11.4487 5.63749
lclavicle -1.01778e-013 6.83819e-014
lhumerus -16.4624 -30.8057 86.3856
lradius 55.7366
lwrist 2.9074
lhand -34.5175 -14.9148
lfingers 7.12502
lthumb -7.67907 14.9258
rfemur -69.3199 -7.80288 -0.556347
rtibia 60.0086
rfoot -19.8719 -3.96626
rtoes -12.8327
lfemur -69.723 -0.641211 -31.64
ltibia 56.6243
lfoot -12.6329 3.61949
ltoes -23.2077
241
root 15.8009 17.8104 1.26152 171.06 -106.539 -135.278
lowerback 75.04 -2.70631 10.8676
upperback 15.3714 1.50425 -2.37784
thorax -2.80056 0.911159 -7.54649
lowerneck 3.35292 -8.65201 9.48083
upperneck -16.4946 -10.3202 5.14051
head -5.82351 -6.12058 0.761503
rclavicle 2.54444e-014 -1.74931e-014
rhumerus 60.3845 0.0398185 1.93466
rradius 22.0448
rwrist 2.47888
rhand -38.6435 34.8552
rfingers 7.12502
rthumb -11.6599 5.19964
lclavicle 2.54444e-014 -1.74931e-014
lhumerus -16.4241 -30.9174 86.4144
lradius 55.6226
lwrist 2.85681
lhand -34.2123 -15.0214
lfingers 7.12502
lthumb -7.38445 14.8297
rfemur -69.39 -7.84204 -0.483915
rtibia 60.0054
rfoot -19.8146 -3.91308
rtoes -12.6762
lfemur -69.7392 -0.595446 -31.6433
ltibia 56.5448
lfoot -12.6118 3.59974
ltoes -23.1185
